<?xml version="1.0" standalone="no"?>
<!DOCTYPE svg PUBLIC "-//W3C//DTD SVG 20010904//EN"
 "http://www.w3.org/TR/2001/REC-SVG-20010904/DTD/svg10.dtd">
<svg version="1.0" xmlns="http://www.w3.org/2000/svg"
 width="698.000000pt" height="142.000000pt" viewBox="0 0 698.000000 142.000000"
 preserveAspectRatio="xMidYMid meet">
<metadata>
Created by potrace 1.15, written by Peter Selinger 2001-2017
</metadata>
<g transform="translate(0.000000,142.000000) scale(0.100000,-0.100000)"
fill="#000000" stroke="none">
<path d="M297 997 c2 -12 -28 -150 -67 -306 -39 -156 -69 -290 -66 -298 4 -10
47 -13 204 -13 191 0 200 1 233 23 30 20 37 34 61 117 37 131 36 165 -2 189
l-31 18 31 13 c25 10 33 23 47 69 9 31 17 80 17 109 1 47 -3 57 -27 78 -28 24
-32 24 -216 24 l-188 0 4 -23z m283 -92 c16 -20 6 -75 -21 -109 -19 -24 -27
-26 -90 -26 -75 0 -75 0 -60 60 5 19 12 47 15 63 6 26 8 27 75 27 49 0 72 -4
81 -15z m-52 -275 c4 -54 -20 -123 -48 -137 -34 -17 -150 -17 -150 0 1 13 15
81 31 140 l10 38 77 -3 77 -3 3 -35z"/>
<path d="M2813 1013 c-12 -2 -33 -17 -47 -33 -49 -59 -112 -302 -123 -472 l-6
-98 36 -15 c27 -11 75 -15 186 -15 180 0 187 4 197 94 l7 59 -21 -21 c-20 -20
-33 -22 -119 -22 -54 0 -104 4 -112 9 -30 19 10 264 60 367 l20 42 104 4 c57
1 109 8 114 13 5 6 14 29 19 53 l10 42 -152 -1 c-83 -1 -161 -4 -173 -6z"/>
<path d="M5109 1006 c9 -11 -2 -80 -50 -305 -51 -240 -60 -293 -49 -306 9 -10
31 -15 74 -15 62 0 63 0 59 27 -2 16 23 156 56 312 33 157 58 288 55 293 -3 4
-39 8 -81 8 -63 0 -74 -2 -64 -14z"/>
<path d="M5452 968 c-23 -37 -87 -78 -121 -78 -14 0 -25 -9 -31 -26 -15 -38
-12 -74 5 -74 21 0 20 -4 -24 -201 -27 -122 -36 -179 -30 -191 8 -16 25 -18
124 -18 62 0 120 3 129 6 9 3 21 25 26 48 6 22 14 49 17 60 5 18 4 18 -18 2
-31 -21 -117 -22 -125 -1 -6 15 39 230 56 273 8 19 17 22 64 22 62 0 75 11 83
70 l6 40 -62 0 -63 0 8 33 c11 51 10 61 -7 65 -10 2 -25 -10 -37 -30z"/>
<path d="M979 900 c-101 -8 -138 -26 -186 -88 -87 -114 -113 -354 -42 -392 10
-6 19 -17 19 -26 0 -12 14 -14 83 -9 114 8 160 22 205 61 65 55 118 213 110
327 -3 45 -10 63 -31 85 -21 22 -24 31 -15 40 14 14 1 14 -143 2z m21 -95 c0
-2 -37 -70 -81 -151 -54 -97 -85 -142 -89 -133 -11 19 6 118 32 186 27 74 57
103 103 103 19 0 35 -2 35 -5z m25 -190 c-14 -45 -36 -93 -48 -108 -22 -27
-87 -49 -87 -30 0 6 35 73 78 149 72 131 77 137 80 104 2 -19 -8 -71 -23 -115z"/>
<path d="M1280 876 c0 -13 -23 -124 -51 -245 -28 -122 -48 -228 -45 -236 4
-11 23 -15 74 -15 67 0 69 1 65 23 -5 28 72 366 87 381 6 6 43 13 83 16 76 5
81 9 102 78 6 21 4 22 -69 22 -58 0 -77 -4 -84 -16 -8 -14 -10 -14 -21 0 -10
12 -32 16 -77 16 -61 0 -64 -1 -64 -24z"/>
<path d="M1650 874 c0 -14 -23 -124 -51 -245 -28 -120 -49 -226 -45 -234 4
-11 22 -15 74 -15 67 0 69 1 65 23 -5 28 72 366 87 381 6 6 43 13 83 16 76 5
81 9 102 78 6 21 4 22 -69 22 -58 0 -77 -4 -84 -16 -8 -14 -10 -14 -21 0 -10
12 -32 16 -77 16 -62 0 -64 -1 -64 -26z"/>
<path d="M3275 882 c-42 -20 -95 -73 -119 -120 -46 -88 -63 -251 -32 -310 46
-89 277 -80 355 15 35 43 78 167 87 254 7 76 -10 128 -51 155 -42 27 -187 31
-240 6z m159 -88 c22 -21 20 -79 -5 -160 -42 -135 -78 -175 -149 -159 -65 14
-72 65 -28 208 28 92 62 127 121 127 28 0 52 -6 61 -16z"/>
<path d="M3666 885 c4 -9 -17 -118 -46 -244 -29 -126 -50 -236 -47 -245 5 -13
22 -16 78 -16 57 0 69 3 61 13 -15 17 72 367 95 385 25 18 92 16 100 -4 3 -9
-13 -97 -36 -196 -22 -99 -39 -184 -35 -189 3 -5 36 -9 73 -9 l68 0 -4 28 c-2
15 16 114 41 220 56 243 53 259 -63 269 -69 6 -113 -7 -129 -40 l-11 -22 0 22
c-1 30 -29 43 -95 43 -46 0 -54 -3 -50 -15z"/>
<path d="M4224 890 c-80 -32 -137 -202 -84 -248 11 -9 55 -28 98 -42 84 -27
93 -39 72 -91 -15 -36 -57 -49 -158 -49 -55 0 -74 4 -78 15 -4 8 -10 15 -14
15 -11 0 -33 -87 -25 -99 4 -7 58 -11 151 -11 125 0 150 3 184 20 51 26 81 84
88 166 4 58 3 64 -21 87 -15 13 -60 34 -102 46 -72 21 -75 23 -75 51 0 54 28
70 125 70 83 0 86 1 95 26 21 54 20 54 -112 53 -68 0 -132 -4 -144 -9z"/>
<path d="M4588 888 c6 -9 -5 -78 -39 -223 -27 -115 -49 -218 -49 -227 0 -9 12
-26 26 -37 23 -18 41 -21 115 -21 74 0 92 3 108 19 19 19 19 19 24 0 4 -16 15
-19 77 -19 57 0 70 3 62 13 -7 9 4 78 39 242 27 127 49 238 49 248 0 15 -10
17 -71 17 -46 0 -68 -4 -64 -10 7 -11 -61 -354 -76 -381 -10 -19 -77 -32 -114
-23 -16 4 -25 13 -25 25 0 11 18 94 40 185 22 92 40 175 40 185 0 17 -8 19
-76 19 -60 0 -74 -3 -66 -12z"/>
<path d="M5927 885 c3 -9 -18 -118 -47 -244 -29 -125 -50 -236 -47 -245 5 -13
21 -16 78 -16 57 0 69 3 61 13 -15 17 72 367 95 385 25 18 92 16 100 -4 3 -9
-13 -97 -36 -196 -22 -99 -39 -184 -35 -189 3 -5 36 -9 73 -9 l68 0 -4 28 c-2
15 16 114 41 220 56 243 53 259 -63 269 -69 6 -113 -7 -129 -40 l-11 -22 0 22
c-1 30 -29 43 -95 43 -46 0 -54 -3 -49 -15z"/>
<path d="M6547 890 c-42 -5 -68 -16 -95 -37 -75 -61 -140 -234 -129 -347 7
-72 37 -96 123 -96 70 0 112 16 140 52 12 17 15 18 10 5 -3 -10 -6 -27 -6 -37
0 -10 -12 -32 -26 -49 -26 -31 -26 -31 -125 -31 -85 0 -102 3 -118 19 -19 19
-20 19 -30 -27 -18 -85 8 -97 192 -90 125 5 161 18 198 69 14 20 44 118 86
286 77 310 81 294 -66 292 -53 -1 -122 -5 -154 -9z m123 -112 c-1 -7 -13 -65
-29 -128 -31 -129 -40 -140 -118 -140 -49 0 -63 17 -63 74 0 40 35 142 58 169
28 32 153 52 152 25z"/>
<path d="M2060 883 c-76 -30 -143 -189 -144 -344 -1 -94 11 -130 51 -148 13
-6 77 -11 141 -11 137 0 156 8 172 73 6 23 14 50 16 60 6 17 4 18 -25 3 -30
-16 -181 -23 -215 -10 -17 6 -21 49 -10 92 6 22 9 22 150 22 l144 0 12 28 c6
15 13 61 15 103 5 70 3 77 -20 105 -25 29 -26 29 -149 31 -67 1 -130 0 -138
-4z"/>
<path d="M5680 871 c7 -15 -2 -73 -41 -241 -28 -121 -48 -227 -45 -235 4 -11
22 -15 70 -15 58 0 64 2 59 19 -3 11 18 121 47 245 28 124 48 230 45 236 -3 5
-38 10 -76 10 -66 0 -69 -1 -59 -19z"/>
</g>
</svg>
